<?xml version="1.0" encoding="utf-8"?>
<!-- Generator: Adobe Illustrator 19.0.0, SVG Export Plug-In . SVG Version: 6.00 Build 0)  -->
<svg version="1.1" id="Layer_1" xmlns="http://www.w3.org/2000/svg" xmlns:xlink="http://www.w3.org/1999/xlink" x="0px" y="0px"
	 viewBox="0 0 500 138" style="enable-background:new 0 0 500 138;" xml:space="preserve">
<style type="text/css">
	.st0{fill:#FFFFFF;}
	.st1{fill:#9F2125;}
	.st2{fill:#FFFFFF;}
</style>
<g id="XMLID_16_">
	<path id="XMLID_80_" class="st0" d="M245.9,29.6c-6.8,0.4-9.5,2-10.1,7.8c-0.4,3.9-1.1,9.8-1.1,21v50.2h-6.1l-52.6-63h-0.4v28.4
		c0,11.1,0.6,16.7,1,20.5c0.6,5.5,2.8,8,12.1,8.3v4.4h-30.9V103c7.1-0.5,10-2.5,10.5-8c0.5-4.1,1.2-9.7,1.2-20.9V47.7
		c0-8.2-0.3-10.6-2.6-13.5c-2.3-3.1-5.2-4-10.5-4.6v-4.4h23.4l48.3,55.4h0.5V58.5c0-11.1-0.8-17.1-1-20.8c-0.6-5.4-3.3-7.6-12.5-8.1
		v-4.4h30.8V29.6z"/>
	<path id="XMLID_72_" class="st0" d="M290.5,108c-3.4,0-6.1-1.1-7.7-2.6c-1.8-1.5-2.6-3.2-3.3-4.7c-4.8,3.2-10.8,7.3-13.1,7.3
		c-10.7,0-17.1-8.3-17.1-16.2c0-6.6,3.1-9.7,9.6-12.1c7.5-2.8,17.2-5.8,20.1-8.3v-3.8c0-8-3.1-12.4-7.7-12.4c-1.7,0-3.1,0.8-4.2,2.3
		c-1.5,1.8-2.6,4.8-3.7,8.7c-0.9,3.3-2.6,4.3-5.3,4.3c-3.3,0-7.8-3.1-7.8-6.3c0-2.3,1.5-3.9,4.5-6.1c4.8-3.3,13.8-7.7,21-9
		c5.2,0,9,1.1,12.4,3.7c5.4,4.2,6.6,9.6,6.6,16.7v20.9c0,5.8,2,7.5,4,7.5c1.5,0,2.9-0.5,4.3-1l1.2,4L290.5,108z M279,76.3
		c-2.3,1.1-4.5,2.5-6.9,3.9c-3.9,2-6,4.3-6,8.6c0,7.1,4.7,9.7,7.6,9.7c1.8,0,3.2-0.5,5.3-2L279,76.3L279,76.3z"/>
	<path id="XMLID_66_" class="st0" d="M343.3,66.9c-3.4-7.7-7.5-12.9-13.4-12.9c-3.3,0-6.5,2.8-6.5,6.8c0,3.9,2.9,6.8,9.4,9.7
		c10.2,4.5,17.1,8.8,17.1,18.7c0,12.5-12,18.7-22.6,18.7c-6.7,0-13.4-2.4-15.9-4.3c-0.8-2-1.9-10.9-2-16.9l3.8-0.4
		c2.8,8,8.6,16.7,16.3,16.7c4.2,0,6.9-3,6.9-6.8c0-3.7-1.8-6.8-9.6-10.5c-5.8-2.9-16-7.8-16-18.7c0-9.8,8-18,21.2-18
		c5.8,0,9.2,1,12.2,2.3c1.2,2.9,2.8,11.9,3.1,14.4L343.3,66.9z"/>
	<path id="XMLID_43_" class="st0" d="M406.6,94c-7.7,11.5-17.6,14-22.8,14c-16.8,0-26.1-12.5-26.1-27.1c0-9.6,4-17.7,9.4-22.9
		c5.5-5.5,12.5-9,19.5-9c11.6,0,20.6,10,20.5,20.3c0,2.5-0.8,4.2-3.7,4.6c-2.3,0.3-17.7,1.5-30.1,2c0.6,13.5,8.1,20.3,17.1,20.3
		c4.9,0,9.6-1.7,14-5.4L406.6,94z M373.8,70c5.2-0.2,9.9-0.3,15.1-0.4c1.9-0.1,2.5-0.4,2.6-2.5c0-6.4-2.8-13-7.7-13
		C379.1,54.1,374.6,60,373.8,70z"/>
	<path id="XMLID_27_" class="st0" d="M463.5,94c-7.7,11.5-17.5,14-22.8,14c-16.8,0-26.2-12.5-26.2-27.1c0-9.6,4-17.7,9.4-22.9
		c5.6-5.5,12.5-9,19.5-9c11.6,0,20.6,10,20.5,20.3c0,2.5-0.8,4.2-3.7,4.6c-2.3,0.3-17.7,1.5-30.1,2c0.6,13.5,8.1,20.3,17.1,20.3
		c4.9,0,9.6-1.7,14-5.4L463.5,94z M430.7,70c5.2-0.2,9.8-0.3,15-0.4c1.9-0.1,2.5-0.4,2.6-2.5c0-6.4-2.7-13-7.7-13
		C435.9,54.1,431.5,60,430.7,70z"/>
	<path id="XMLID_4_" class="st0" d="M470.3,53.6c7.7-0.9,15.9-2.6,23.9-4.6v41.1c0,9.7-1,14.6-3.6,20.5c-4.9,12-14.5,22.6-17.6,24.8
		c-1.9,1.4-2.9,1.9-4.4,1.9c-1.8,0-5-2.9-5-6.9c0-2,1.2-3.4,3.1-3.4c5.5-0.1,8.6-1,9.5-2.5c0.8-1.5,1.2-4.6,1.5-9
		c0.3-7.5,0.5-15.6,0.5-23.8V68c0-9.1-0.9-9.4-7.8-10.5L470.3,53.6L470.3,53.6z"/>
	<polygon id="XMLID_3_" class="st0" points="497.4,14.1 481.7,1.4 469.1,17.1 484.7,29.7 	"/>
</g>
<path id="XMLID_2_" class="st1" d="M138.3,68.8c0,37.5-30.4,67.8-67.8,67.8c-37.4,0-67.8-30.4-67.8-67.8S33,0.9,70.5,0.9
	S138.3,31.3,138.3,68.8z"/>
<path id="XMLID_1_" class="st2" d="M37.2,84.3L63.5,24l40.2,89.5H84.2L60.3,46.9C60.3,46.9,39.2,84.1,37.2,84.3z"/>
</svg>
